# xmcd
#
# Track frame offsets:
#	150
#	16620
#	33230
#	52032
#	71037
#	88395
#	105220
#	116852
#	133390
#	150255
#	167375
#	181667
#	197765
#	212207
#	227010
#
# Disc length: 3228 seconds
#
# Revision: 2
# Processed by: cddbd v1.5.2PL0 Copyright (c) Steve Scherf et al.
# Submitted via: audiograbber 1.83.01
#
DISCID=c20c9a0f
DTITLE=Alcymar Monteiro - Toques e Batuques
DYEAR=2000
DGENRE=Forró
TTITLE0=Cometa Mambembe
TTITLE1=Maria Rezadeira
TTITLE2=Frevo Interativo
TTITLE3=Festa do Boi Bumbá
TTITLE4=Frevo da Parceiria
TTITLE5=Rua da Aurora
TTITLE6=É de Fazer Chorar
TTITLE7=Quando Anoitece
TTITLE8=É Lá e Cá
TTITLE9=O Maior Bloco do Mundo (Book Frevo)
TTITLE10=Rosa Cor de Rosa
TTITLE11=Pernambuco é Frevo No Pé
TTITLE12=Evocação Número 1
TTITLE13=Pernambucália
TTITLE14=Eletricidade
EXTD=Dados Por - Dayvison de Azevedo - Recife - PE\nFacebook - https://www.face
EXTD=book.com/profile.php?id=100006142608616
EXTT0=
EXTT1=
EXTT2=
EXTT3=
EXTT4=
EXTT5=
EXTT6=
EXTT7=
EXTT8=
EXTT9=
EXTT10=
EXTT11=
EXTT12=
EXTT13=
EXTT14=
PLAYORDER=
